<?xml version="1.0" standalone="no"?>
<!DOCTYPE svg PUBLIC "-//W3C//DTD SVG 20010904//EN"
 "http://www.w3.org/TR/2001/REC-SVG-20010904/DTD/svg10.dtd">
<svg version="1.0" xmlns="http://www.w3.org/2000/svg"
 width="2404.000000pt" height="2404.000000pt" viewBox="0 0 2404.000000 2404.000000"
 preserveAspectRatio="xMidYMid meet">
<metadata>
Created by potrace 1.16, written by Peter Selinger 2001-2019
</metadata>
<g transform="translate(0.000000,2404.000000) scale(0.100000,-0.100000)"
fill="#fff" stroke="none">
<path d="M9440 20453 c-41 -2 -172 -10 -290 -18 -758 -55 -1368 -203 -1857
-451 -344 -174 -637 -409 -862 -689 -126 -158 -310 -445 -284 -445 5 0 36 19
68 43 360 260 821 382 1365 363 322 -12 705 -47 1110 -102 661 -90 1059 -128
1710 -164 588 -32 1116 17 1680 156 389 96 762 230 1074 386 357 178 726 434
726 502 0 19 3 18 -260 61 -1251 200 -2305 317 -3200 355 -211 9 -786 11 -980
3z"/>
<path d="M14139 20028 c-1 -13 0 -34 1 -47 1 -13 -2 -21 -7 -18 -4 3 -9 -25
-10 -62 -2 -81 -40 -228 -87 -340 -226 -536 -825 -874 -1791 -1010 -201 -29
-442 -50 -655 -59 -112 -4 392 -9 1280 -13 1246 -5 1487 -8 1610 -22 468 -51
786 -148 1045 -318 93 -61 255 -219 308 -300 47 -72 111 -202 128 -257 l12
-42 116 61 c871 461 1441 1092 1742 1929 l48 134 -27 50 c-66 124 -212 222
-392 266 -261 62 -471 70 -2012 70 l-1308 0 -1 -22z"/>
<path d="M8081 14353 l0 -2648 45 170 c538 2051 1631 3449 3369 4310 738 365
1431 581 2550 794 99 19 78 19 -2932 20 l-3033 1 1 -2647z"/>
<path d="M17942 16859 c-39 -167 -121 -420 -182 -564 -174 -408 -381 -715
-700 -1036 -280 -282 -563 -491 -925 -685 l-104 -55 -4 -1377 c-3 -1500 -2
-1461 -62 -1788 -99 -534 -319 -848 -705 -1007 -239 -98 -526 -157 -909 -187
-90 -7 -1496 -10 -4174 -10 l-4040 0 7 -72 c17 -179 70 -302 172 -403 98 -97
228 -157 425 -197 101 -20 143 -23 374 -23 451 0 765 46 1902 279 1004 206
1334 259 1771 287 708 44 1853 -192 3412 -703 498 -163 1125 -389 1635 -588
l210 -82 430 6 c736 11 956 35 1153 127 185 85 276 229 318 499 32 208 35 617
32 4179 l-3 3545 -33 -145z"/>
<path d="M12390 13509 c-792 -282 -1439 -626 -2011 -1071 -237 -185 -496 -420
-682 -622 l-99 -106 2276 0 2276 0 0 930 0 930 -797 -1 -798 -1 -165 -59z"/>
<path d="M11005 9063 c-22 -1 -103 -7 -180 -13 -281 -22 -928 -114 -1545 -221
-389 -67 -818 -154 -834 -170 -6 -5 1078 -9 2647 -9 1461 0 2657 3 2657 8 0
16 -996 241 -1290 291 -492 84 -1170 137 -1455 114z"/>
<path d="M12770 7565 l0 -85 160 0 160 0 0 -626 0 -626 -39 50 c-37 47 -108
110 -141 126 -8 4 -1 -3 15 -15 39 -30 114 -105 147 -149 l27 -35 1 103 0 102
149 0 c82 0 163 3 180 6 l31 7 0 -712 0 -711 -250 0 -250 0 34 63 c19 34 37
73 41 87 3 14 -12 -12 -35 -58 -93 -187 -243 -274 -448 -259 -100 7 -160 29
-217 79 -52 46 -88 104 -121 192 -13 33 -23 55 -23 49 -1 -7 8 -36 19 -65 11
-28 18 -54 15 -56 -2 -2 -78 3 -169 12 -91 9 -169 16 -175 16 -6 0 -19 17 -30
38 -11 20 -20 32 -21 27 0 -6 21 -46 46 -90 93 -159 246 -281 429 -342 73 -25
93 -27 240 -27 141 0 168 3 225 23 116 40 228 126 294 226 l26 40 0 -118 0
-117 340 0 340 0 0 85 0 85 -155 0 -156 0 7 143 c4 78 3 699 -1 1380 l-7 1237
-344 0 -344 0 0 -85z"/>
<path d="M13960 7565 l0 -85 150 0 150 0 0 -1295 0 -1295 -150 0 -150 0 0 -85
0 -85 490 0 490 0 0 85 0 85 -155 0 -155 0 0 125 c0 69 -2 125 -4 125 -2 0
-82 -13 -178 -30 -95 -16 -174 -30 -175 -30 -2 0 -3 310 -3 688 l0 689 148 12
c81 6 162 14 180 17 l32 6 0 579 0 579 -335 0 -335 0 0 -85z"/>
<path d="M15557 7486 c-168 -47 -233 -263 -120 -396 52 -61 104 -84 188 -84
92 -1 165 37 210 109 53 85 45 221 -17 300 -49 62 -172 96 -261 71z"/>
<path d="M7741 6504 c-71 -19 -137 -56 -215 -120 l-63 -52 -49 35 c-142 103
-341 148 -544 124 -294 -36 -501 -198 -586 -457 -27 -81 -29 -101 -29 -229 1
-127 3 -148 29 -220 27 -80 83 -181 111 -205 24 -20 19 -34 -37 -107 -100
-132 -143 -260 -136 -408 3 -74 9 -102 31 -148 46 -92 141 -162 256 -189 l49
-11 78 69 c44 38 138 116 209 174 l130 105 185 6 c139 4 91 6 -190 6 -343 1
-379 2 -425 20 -98 37 -122 126 -65 239 16 32 38 70 48 83 18 23 19 23 52 6
114 -59 283 -91 424 -81 225 15 399 99 523 251 163 201 192 528 67 766 -21 39
-33 74 -28 77 34 25 109 72 115 72 4 0 11 -10 15 -22 22 -72 91 -118 176 -118
68 0 109 25 137 82 38 80 23 169 -38 221 -57 47 -132 58 -230 31z m-615 -192
c128 -66 172 -216 161 -547 -10 -287 -55 -396 -185 -445 -48 -19 -73 -21 -162
-18 -112 4 -149 16 -203 67 -65 60 -94 162 -103 366 -7 149 6 318 31 402 29
97 93 165 183 194 15 4 74 7 132 6 85 -2 113 -7 146 -25z"/>
<path d="M10435 6490 c-180 -21 -357 -93 -450 -185 -52 -51 -105 -142 -105
-179 1 -12 8 2 18 29 10 28 32 71 49 96 30 43 35 46 100 58 277 52 536 89 776
111 109 10 120 9 156 -10 41 -21 93 -66 130 -115 l22 -30 -18 34 c-41 76 -161
149 -289 176 -89 19 -287 26 -389 15z"/>
<path d="M12470 6493 c-74 -9 -164 -34 -236 -67 -41 -19 -74 -37 -74 -41 0 -3
18 4 40 15 38 19 52 20 367 14 296 -5 326 -4 309 10 -62 50 -267 85 -406 69z"/>
<path d="M17230 6492 c24 -7 20 -11 -73 -101 -54 -52 -90 -91 -80 -87 52 20
127 28 227 23 115 -5 187 -22 244 -57 l34 -21 -25 -32 c-88 -116 -100 -241
-30 -335 60 -80 195 -101 295 -45 42 24 59 42 81 84 26 48 28 62 25 129 -9
200 -182 364 -449 425 -65 15 -297 31 -249 17z"/>
<path d="M9221 6475 c-129 -36 -247 -126 -331 -251 l-50 -76 0 146 0 146 -340
0 -340 0 0 -85 0 -85 150 0 150 0 0 -690 0 -690 -150 0 -150 0 0 -85 0 -85
500 0 500 0 0 85 0 85 -160 0 -160 0 -2 398 -3 397 -5 -354 -5 -355 -177 -36
-178 -36 0 442 0 442 163 70 c89 39 185 80 214 91 l52 20 -15 -41 c-8 -22 -14
-46 -13 -52 0 -6 11 20 24 57 49 138 147 267 243 320 l50 27 -5 -57 c-6 -71 9
-132 43 -173 27 -32 73 -60 96 -60 7 1 -3 8 -22 16 -40 17 -80 52 -80 69 0 10
179 71 345 118 48 14 50 15 47 48 -8 108 -57 181 -144 219 -67 29 -173 36
-247 15z"/>
<path d="M15142 6358 l-2 -88 150 0 150 0 0 -690 0 -690 -150 0 -150 0 0 -85
0 -85 490 0 490 0 0 85 0 85 -155 0 -155 0 0 309 0 308 -157 -62 c-87 -35
-168 -66 -180 -70 l-23 -6 0 455 0 456 -150 0 -149 0 -4 83 -3 82 -2 -87z"/>
<path d="M16946 6218 c-97 -98 -388 -315 -504 -377 -21 -11 -22 -11 -17 16 5
27 5 27 -5 4 -45 -104 -51 -404 -10 -556 29 -111 108 -267 174 -347 106 -128
253 -222 421 -270 107 -30 363 -33 465 -5 195 54 331 167 424 353 38 77 88
235 78 246 -8 9 -120 38 -144 38 -13 0 -22 -18 -38 -69 -93 -314 -330 -466
-636 -410 -133 24 -218 92 -280 223 -52 110 -74 230 -81 441 -13 404 58 648
221 767 21 15 33 28 26 28 -7 0 -49 -37 -94 -82z"/>
<path d="M11192 5441 l-2 -314 -107 6 c-58 4 -144 7 -190 7 l-83 0 5 28 c4 15
-5 1 -19 -31 -62 -146 -161 -234 -309 -273 -102 -27 -181 -13 -246 43 -41 35
-81 118 -81 171 0 56 -2 56 -187 44 -92 -7 -176 -12 -185 -12 -43 0 -5 -169
59 -260 48 -68 142 -133 236 -162 61 -20 93 -23 212 -22 124 0 149 3 222 27
100 34 182 87 262 173 36 38 63 60 65 52 2 -7 9 -33 16 -58 18 -65 80 -123
155 -146 49 -15 90 -19 220 -17 88 0 180 5 205 10 l45 8 3 77 3 76 -98 -5
c-108 -5 -131 2 -167 50 -20 27 -21 42 -26 435 l-6 407 -2 -314z"/>
<path d="M7664 4788 c10 -7 34 -25 52 -40 l35 -27 -88 -26 c-48 -14 -189 -58
-313 -98 l-225 -72 114 -7 c151 -10 207 -22 272 -61 77 -46 104 -103 104 -217
0 -59 -6 -101 -19 -136 -64 -173 -233 -295 -471 -339 -110 -21 -337 -16 -430
9 -148 40 -258 126 -285 220 -19 67 -9 160 25 235 l29 63 -25 19 c-13 10 -43
28 -65 41 l-42 22 -37 -28 c-99 -76 -164 -219 -151 -332 24 -208 231 -367 545
-419 136 -23 403 -16 532 14 198 45 335 117 459 241 133 132 195 269 207 459
7 111 -10 219 -48 298 -33 70 -108 152 -160 177 -19 9 -26 11 -15 4z m-1227
-491 c9 -9 14 -20 11 -23 -6 -5 -264 -114 -271 -114 -2 0 39 42 92 94 l95 95
29 -17 c16 -9 36 -25 44 -35z"/>
</g>
</svg>
